<svg id="削除" xmlns="http://www.w3.org/2000/svg" width="22.235" height="29.185" viewBox="0 0 22.235 29.185">
  <path id="パス_25628" data-name="パス 25628" d="M76.595,4.2s.165.126-2.4-.72a21.111,21.111,0,0,0-4.476-.922L69.567,1.4A1.508,1.508,0,0,0,68.147,0h-3.4a1.509,1.509,0,0,0-1.419,1.4l-.151,1.162a21.108,21.108,0,0,0-4.475.922c-2.567.847-2.4.72-2.4.72a1.467,1.467,0,0,0-.972,1.437V6.641H77.567V5.636A1.466,1.466,0,0,0,76.595,4.2Z" transform="translate(-55.332)" fill="#333"/>
  <path id="パス_25629" data-name="パス 25629" d="M64.368,157.222a2.972,2.972,0,0,0,2.851,2.846H80a2.972,2.972,0,0,0,2.851-2.846l1.416-19.7H62.952ZM78.36,141.879a.871.871,0,0,1,.891-.861.894.894,0,0,1,.789.971l-.8,14.419a.871.871,0,0,1-.891.86.893.893,0,0,1-.789-.971Zm-5.591.055a.845.845,0,1,1,1.683,0v14.419a.845.845,0,1,1-1.683,0Zm-4.8-.916a.871.871,0,0,1,.891.861l.8,14.419a.893.893,0,0,1-.789.971.871.871,0,0,1-.891-.86l-.8-14.419A.893.893,0,0,1,67.97,141.018Z" transform="translate(-62.494 -130.883)" fill="#333"/>
</svg>
