<svg id="グループ_20199" data-name="グループ 20199" xmlns="http://www.w3.org/2000/svg" xmlns:xlink="http://www.w3.org/1999/xlink" width="26.977" height="35.897" viewBox="0 0 26.977 35.897">
  <defs>
    <clipPath id="clip-path">
      <rect id="長方形_8387" data-name="長方形 8387" width="26.977" height="35.897" fill="#333"/>
    </clipPath>
  </defs>
  <g id="グループ_20047" data-name="グループ 20047" clip-path="url(#clip-path)">
    <path id="パス_26516" data-name="パス 26516" d="M25,32.676l1.98.174L21.637,21.5A4.662,4.662,0,0,0,24.1,20.272c.76-1.044.152-2.827.558-4.081.393-1.21,1.947-2.289,1.947-3.63s-1.553-2.42-1.947-3.63c-.407-1.254.2-3.037-.558-4.081S21.444,3.828,20.39,3.06,18.8.49,17.542.084c-1.21-.393-2.713.736-4.054.736S10.644-.31,9.433.084C8.18.49,7.63,2.3,6.586,3.06S3.643,3.8,2.876,4.85s-.152,2.827-.558,4.081C1.924,10.141.371,11.22.371,12.561s1.553,2.42,1.947,3.63c.407,1.254-.2,3.037.558,4.08A4.669,4.669,0,0,0,5.339,21.5L0,32.85l1.979-.174L6.858,22.3a5.491,5.491,0,0,1,.632.755L3.008,32.586l1.117-.1.638.924,4.092-8.7a1.914,1.914,0,0,0,.578.327,1.654,1.654,0,0,0,.236.041L5.35,34.264,6.477,35.9l5.264-11.191a5.6,5.6,0,0,1,1.747-.4,5.6,5.6,0,0,1,1.747.4L20.5,35.9l1.128-1.634L17.308,25.08a1.637,1.637,0,0,0,.234-.041,1.939,1.939,0,0,0,.579-.327l4.092,8.7.639-.924,1.117.1-4.482-9.529a5.517,5.517,0,0,1,.632-.754Zm-11.51-9.827A10.288,10.288,0,1,1,23.775,12.56,10.289,10.289,0,0,1,13.487,22.849m0-19.888a9.6,9.6,0,1,0,9.6,9.6,9.614,9.614,0,0,0-9.6-9.6M19.7,11.69,17.643,13.7a2.083,2.083,0,0,0-.533,1.64l.487,2.837c.091.528-.223.756-.7.507l-2.548-1.34a2.083,2.083,0,0,0-1.725,0l-2.547,1.34c-.475.249-.789.021-.7-.507l.487-2.837a2.083,2.083,0,0,0-.533-1.64L7.272,11.69c-.383-.374-.264-.743.266-.82l2.849-.414a2.082,2.082,0,0,0,1.395-1.014L13.057,6.86c.237-.48.625-.48.862,0l1.275,2.582a2.082,2.082,0,0,0,1.395,1.014l2.85.414c.53.077.65.446.266.82" transform="translate(0 0)" fill="#333"/>
  </g>
</svg>
